<svg width="493" height="70" viewBox="0 0 493 70" fill="none" xmlns="http://www.w3.org/2000/svg">
<path fill-rule="evenodd" clip-rule="evenodd" d="M80.6 48.7C82.1334 44.4333 82.9 39.8667 82.9 35C82.9 30.2 82.1334 25.7 80.6 21.5C79.0667 17.2333 76.8667 13.5 74 10.3C73.9148 10.2006 73.829 10.1018 73.7427 10.0038C73.8944 10.0013 74.0469 10 74.2 10H111.5C113.157 10 114.5 11.3431 114.5 13V67C114.5 68.6569 115.843 70 117.5 70H121.5C123.157 70 124.5 68.6569 124.5 67V3C124.5 1.34315 123.157 0 121.5 0H74.2C69.9424 0 66.0257 0.708089 62.45 2.12427C58.8743 0.70809 54.9576 0 50.7 0H3.40002C1.74317 0 0.400024 1.34315 0.400024 3V67C0.400024 68.6569 1.74317 70 3.40002 70H7.40003C9.05688 70 10.4 68.6569 10.4 67V13C10.4 11.3431 11.7432 10 13.4 10H50.7C50.8532 10 51.0056 10.0013 51.1573 10.0038C51.071 10.1018 50.9852 10.2006 50.9 10.3C48.0333 13.5 45.8333 17.2333 44.3 21.5C42.7667 25.7 42 30.2 42 35C42 39.8667 42.7667 44.4333 44.3 48.7C45.8333 52.9 48.0333 56.6 50.9 59.8C50.9579 59.8661 51.016 59.932 51.0743 59.9975C50.95 59.9992 50.8253 60 50.7 60H18.4C16.7432 60 15.4 61.3431 15.4 63V67C15.4 68.6569 16.7432 70 18.4 70H50.7C54.9576 70 58.8743 69.2919 62.45 67.8757C66.0257 69.2919 69.9424 70 74.2 70H106.5C108.157 70 109.5 68.6569 109.5 67V63C109.5 61.3431 108.157 60 106.5 60H74.2C74.0748 60 73.95 59.9992 73.8257 59.9975C73.8841 59.932 73.9422 59.8661 74 59.8C76.8667 56.6 79.0667 52.9 80.6 48.7ZM62.45 56.701C62.5002 56.6676 62.5502 56.6339 62.6 56.6C65.9334 54.3333 68.4667 51.3333 70.2 47.6C72 43.8 72.9 39.6 72.9 35C72.9 30.4 72 26.2 70.2 22.4C68.4667 18.6 65.9334 15.6 62.6 13.4C62.5502 13.3661 62.5002 13.3324 62.45 13.299C65.6405 11.174 69.4048 10.0756 73.7427 10.0038C70.9925 6.87981 67.6783 4.44522 63.8 2.7C63.3556 2.4966 62.9056 2.30469 62.45 2.12427C61.9945 2.30469 61.5445 2.4966 61.1 2.7C57.2217 4.44522 53.9075 6.8798 51.1573 10.0038C55.4952 10.0756 59.2595 11.174 62.45 13.299C62.3999 13.3324 62.3499 13.3661 62.3 13.4C58.9667 15.6 56.4333 18.6 54.7 22.4C52.9 26.2 52 30.4 52 35C52 39.6 52.9 43.8 54.7 47.6C56.4333 51.3333 58.9667 54.3333 62.3 56.6C62.3499 56.6339 62.3999 56.6676 62.45 56.701ZM62.45 56.701C59.2392 58.8395 55.4473 59.9384 51.0743 59.9975C53.8408 63.103 57.1827 65.5372 61.1 67.3C61.5445 67.5034 61.9945 67.6953 62.45 67.8757C62.9056 67.6953 63.3556 67.5034 63.8 67.3C67.7174 65.5372 71.0593 63.103 73.8257 59.9975C69.4528 59.9384 65.6609 58.8395 62.45 56.701Z" fill="#111B35"/>
<path d="M159.3 56V13.4H174.42C179.02 13.4 182.86 14.36 185.94 16.28C189.02 18.16 191.32 20.72 192.84 23.96C194.4 27.16 195.18 30.72 195.18 34.64C195.18 38.96 194.32 42.72 192.6 45.92C190.92 49.12 188.52 51.6 185.4 53.36C182.28 55.12 178.62 56 174.42 56H159.3ZM188.34 34.64C188.34 31.64 187.78 29 186.66 26.72C185.58 24.4 184 22.6 181.92 21.32C179.88 20 177.38 19.34 174.42 19.34H166.02V50.06H174.42C177.42 50.06 179.94 49.38 181.98 48.02C184.06 46.66 185.64 44.82 186.72 42.5C187.8 40.18 188.34 37.56 188.34 34.64Z" fill="#111B35"/>
<path d="M212.967 13.4H219.327L235.887 56H228.807L224.307 44.42H207.867L203.427 56H196.287L212.967 13.4ZM222.987 39.44L216.147 20.78L209.067 39.44H222.987Z" fill="#111B35"/>
<path d="M241.155 56V13.4H247.875V56H241.155Z" fill="#111B35"/>
<path d="M257.503 56V13.4H264.223V50.06H287.083V56H257.503Z" fill="#111B35"/>
<path d="M289.275 13.4L301.035 34.58L312.915 13.4H320.295L304.395 40.76V56H297.675V40.64L281.895 13.4H289.275Z" fill="#111B35"/>
<path d="M338.187 56V13.4H353.307C357.907 13.4 361.747 14.36 364.827 16.28C367.907 18.16 370.207 20.72 371.727 23.96C373.287 27.16 374.067 30.72 374.067 34.64C374.067 38.96 373.207 42.72 371.487 45.92C369.807 49.12 367.407 51.6 364.287 53.36C361.167 55.12 357.507 56 353.307 56H338.187ZM367.227 34.64C367.227 31.64 366.667 29 365.547 26.72C364.467 24.4 362.887 22.6 360.807 21.32C358.767 20 356.267 19.34 353.307 19.34H344.907V50.06H353.307C356.307 50.06 358.827 49.38 360.867 48.02C362.947 46.66 364.527 44.82 365.607 42.5C366.687 40.18 367.227 37.56 367.227 34.64Z" fill="#111B35"/>
<path d="M398.836 56.3C395.756 56.3 392.976 55.7 390.496 54.5C388.016 53.3 385.876 51.68 384.076 49.64C382.276 47.56 380.876 45.24 379.876 42.68C378.916 40.08 378.436 37.42 378.436 34.7C378.436 31.86 378.956 29.16 379.996 26.6C381.036 24 382.476 21.7 384.316 19.7C386.156 17.66 388.316 16.06 390.796 14.9C393.316 13.7 396.036 13.1 398.956 13.1C401.996 13.1 404.756 13.72 407.236 14.96C409.756 16.2 411.896 17.86 413.656 19.94C415.456 22.02 416.836 24.34 417.796 26.9C418.796 29.46 419.296 32.08 419.296 34.76C419.296 37.6 418.776 40.32 417.736 42.92C416.736 45.48 415.316 47.78 413.476 49.82C411.636 51.82 409.456 53.4 406.936 54.56C404.456 55.72 401.756 56.3 398.836 56.3ZM385.276 34.7C385.276 36.7 385.596 38.64 386.236 40.52C386.876 42.4 387.776 44.08 388.936 45.56C390.136 47 391.576 48.14 393.256 48.98C394.936 49.82 396.816 50.24 398.896 50.24C401.056 50.24 402.976 49.8 404.656 48.92C406.336 48.04 407.736 46.86 408.856 45.38C410.016 43.86 410.896 42.18 411.496 40.34C412.096 38.46 412.396 36.58 412.396 34.7C412.396 32.7 412.076 30.78 411.436 28.94C410.836 27.06 409.936 25.4 408.736 23.96C407.536 22.48 406.096 21.32 404.416 20.48C402.776 19.64 400.936 19.22 398.896 19.22C396.736 19.22 394.816 19.66 393.136 20.54C391.456 21.42 390.036 22.6 388.876 24.08C387.716 25.56 386.816 27.22 386.176 29.06C385.576 30.9 385.276 32.78 385.276 34.7Z" fill="#111B35"/>
<path d="M451.395 23.42C450.995 22.98 450.415 22.52 449.655 22.04C448.895 21.52 447.995 21.04 446.955 20.6C445.915 20.16 444.795 19.8 443.595 19.52C442.395 19.24 441.155 19.1 439.875 19.1C437.075 19.1 434.995 19.62 433.635 20.66C432.275 21.7 431.595 23.14 431.595 24.98C431.595 26.34 431.975 27.42 432.735 28.22C433.495 28.98 434.655 29.62 436.215 30.14C437.775 30.66 439.735 31.22 442.095 31.82C444.975 32.5 447.475 33.32 449.595 34.28C451.715 35.2 453.335 36.44 454.455 38C455.575 39.56 456.135 41.62 456.135 44.18C456.135 46.34 455.735 48.2 454.935 49.76C454.135 51.32 453.015 52.6 451.575 53.6C450.135 54.56 448.475 55.28 446.595 55.76C444.715 56.2 442.695 56.42 440.535 56.42C438.415 56.42 436.295 56.2 434.175 55.76C432.095 55.32 430.095 54.68 428.175 53.84C426.295 52.96 424.555 51.9 422.955 50.66L426.015 44.9C426.535 45.42 427.275 46 428.235 46.64C429.235 47.24 430.375 47.82 431.655 48.38C432.975 48.94 434.395 49.42 435.915 49.82C437.475 50.18 439.055 50.36 440.655 50.36C443.335 50.36 445.375 49.9 446.775 48.98C448.215 48.02 448.935 46.66 448.935 44.9C448.935 43.46 448.475 42.32 447.555 41.48C446.635 40.6 445.295 39.86 443.535 39.26C441.775 38.66 439.675 38.06 437.235 37.46C434.435 36.7 432.095 35.88 430.215 35C428.335 34.08 426.915 32.92 425.955 31.52C425.035 30.08 424.575 28.26 424.575 26.06C424.575 23.26 425.255 20.9 426.615 18.98C427.975 17.02 429.815 15.56 432.135 14.6C434.495 13.6 437.135 13.1 440.055 13.1C441.975 13.1 443.795 13.32 445.515 13.76C447.235 14.16 448.835 14.72 450.315 15.44C451.835 16.16 453.215 16.98 454.455 17.9L451.395 23.42Z" fill="#111B35"/>
<path d="M492.094 50.06V56H462.874V13.4H491.554V19.34H469.594V31.46H488.614V37.04H469.594V50.06H492.094Z" fill="#111B35"/>
</svg>
